<svg id="visual" viewBox="0 0 960 540" width="960" height="540" xmlns="http://www.w3.org/2000/svg" xmlns:xlink="http://www.w3.org/1999/xlink" version="1.1"><rect x="0" y="0" width="960" height="540" fill="#012a2d"></rect><path d="M0 222L22.8 225C45.7 228 91.3 234 137 236.5C182.7 239 228.3 238 274 218.2C319.7 198.3 365.3 159.7 411.2 156.3C457 153 503 185 548.8 201.5C594.7 218 640.3 219 686 205.7C731.7 192.3 777.3 164.7 823 157.8C868.7 151 914.3 165 937.2 172L960 179L960 541L937.2 541C914.3 541 868.7 541 823 541C777.3 541 731.7 541 686 541C640.3 541 594.7 541 548.8 541C503 541 457 541 411.2 541C365.3 541 319.7 541 274 541C228.3 541 182.7 541 137 541C91.3 541 45.7 541 22.8 541L0 541Z" fill="#04393d"></path><path d="M0 258L22.8 268.3C45.7 278.7 91.3 299.3 137 307C182.7 314.7 228.3 309.3 274 298.5C319.7 287.7 365.3 271.3 411.2 270.7C457 270 503 285 548.8 294C594.7 303 640.3 306 686 296C731.7 286 777.3 263 823 240.7C868.7 218.3 914.3 196.7 937.2 185.8L960 175L960 541L937.2 541C914.3 541 868.7 541 823 541C777.3 541 731.7 541 686 541C640.3 541 594.7 541 548.8 541C503 541 457 541 411.2 541C365.3 541 319.7 541 274 541C228.3 541 182.7 541 137 541C91.3 541 45.7 541 22.8 541L0 541Z" fill="#033539"></path><path d="M0 367L22.8 347.2C45.7 327.3 91.3 287.7 137 286.2C182.7 284.7 228.3 321.3 274 328C319.7 334.7 365.3 311.3 411.2 296C457 280.7 503 273.3 548.8 273.3C594.7 273.3 640.3 280.7 686 296.5C731.7 312.3 777.3 336.7 823 342.7C868.7 348.7 914.3 336.3 937.2 330.2L960 324L960 541L937.2 541C914.3 541 868.7 541 823 541C777.3 541 731.7 541 686 541C640.3 541 594.7 541 548.8 541C503 541 457 541 411.2 541C365.3 541 319.7 541 274 541C228.3 541 182.7 541 137 541C91.3 541 45.7 541 22.8 541L0 541Z" fill="#023135"></path><path d="M0 338L22.8 337.5C45.7 337 91.3 336 137 338.7C182.7 341.3 228.3 347.7 274 355.3C319.7 363 365.3 372 411.2 385.7C457 399.3 503 417.7 548.8 414.5C594.7 411.3 640.3 386.7 686 377.7C731.7 368.7 777.3 375.3 823 372.5C868.7 369.7 914.3 357.3 937.2 351.2L960 345L960 541L937.2 541C914.3 541 868.7 541 823 541C777.3 541 731.7 541 686 541C640.3 541 594.7 541 548.8 541C503 541 457 541 411.2 541C365.3 541 319.7 541 274 541C228.3 541 182.7 541 137 541C91.3 541 45.7 541 22.8 541L0 541Z" fill="#012d31"></path><path d="M0 494L22.8 484.7C45.7 475.3 91.3 456.7 137 451.2C182.7 445.7 228.3 453.3 274 451.8C319.7 450.3 365.3 439.7 411.2 432C457 424.3 503 419.7 548.8 420.5C594.7 421.3 640.3 427.7 686 429.7C731.7 431.7 777.3 429.3 823 426.8C868.7 424.3 914.3 421.7 937.2 420.3L960 419L960 541L937.2 541C914.3 541 868.7 541 823 541C777.3 541 731.7 541 686 541C640.3 541 594.7 541 548.8 541C503 541 457 541 411.2 541C365.3 541 319.7 541 274 541C228.3 541 182.7 541 137 541C91.3 541 45.7 541 22.8 541L0 541Z" fill="#012a2d"></path></svg>