<!DOCTYPE svg PUBLIC "-//W3C//DTD SVG 1.1//EN" "http://www.w3.org/Graphics/SVG/1.1/DTD/svg11.dtd">
<!-- Uploaded to: SVG Repo, www.svgrepo.com, Transformed by: SVG Repo Mixer Tools -->
<svg fill="#d4af37" version="1.1" id="Layer_1" xmlns="http://www.w3.org/2000/svg" xmlns:xlink="http://www.w3.org/1999/xlink" width="800px" height="800px" viewBox="0 0 245 256" enable-background="new 0 0 245 256" xml:space="preserve">
<g id="SVGRepo_bgCarrier" stroke-width="0"/>
<g id="SVGRepo_tracerCarrier" stroke-linecap="round" stroke-linejoin="round"/>
<g id="SVGRepo_iconCarrier"> <path d="M190,63.24V7h-31v27.73L122.97,1.82L1.94,110.15l18.4,20.74L39,114.04V254h167V115.08l18.36,16.85l18.89-20.22L190,63.24z M144.43,193.08c1.25-0.41,2.46-0.7,3.71-0.7c3.7-0.13,6.86,1,9.57,3.45c2.7,2.41,4.16,5.41,4.24,9.2c0.13,1.12,0,2.45-0.29,3.7 l-10.61-9.78l-9.57,10.45l10.73,9.73c-1.24,0.42-2.45,0.71-3.7,0.71c-3.7,0.13-6.87-1-9.57-3.45c-2.7-2.58-4.16-5.58-4.29-9.28 c0-1.29,0.13-2.75,0.42-4l-2.58-2.45l-15.44-14.11l-26.13,28.8c-1.58,2.12-4.04,3.58-6.87,3.58c-4.57,0-8.28-3.71-8.28-8.29 c0-2.45,0.96-4.7,2.83-6.28l27.13-28.13l-16.39-15.02c-1.29,0.58-2.75,0.87-4,0.87c-3.7,0.13-6.86-1-9.57-3.45 c-2.7-2.46-4.16-5.45-4.28-9.15c-0.13-1.13,0-2.46,0.29-3.71l10.73,9.74l9.49-10.4l-10.73-9.74c1.12-0.42,2.45-0.71,3.7-0.71 c3.7-0.12,6.87,1,9.57,3.46c2.7,2.41,4.16,5.57,4.29,9.27c0.12,1.25,0,2.46-0.3,3.71l16.9,15.48l12.36-13.36l-18.48-16.27 l16.77-19.1l47.48,41.78l-16.77,19.1L137.82,162l-11.95,14.11L144.43,193.08z"/> </g>
</svg>