<!DOCTYPE svg PUBLIC "-//W3C//DTD SVG 1.1//EN" "http://www.w3.org/Graphics/SVG/1.1/DTD/svg11.dtd">
<!-- Uploaded to: SVG Repo, www.svgrepo.com, Transformed by: SVG Repo Mixer Tools -->
<svg fill="#d4af37" version="1.1" id="Capa_1" xmlns="http://www.w3.org/2000/svg" xmlns:xlink="http://www.w3.org/1999/xlink" width="800px" height="800px" viewBox="0 0 90.541 90.541" xml:space="preserve">
<g id="SVGRepo_bgCarrier" stroke-width="0"/>
<g id="SVGRepo_tracerCarrier" stroke-linecap="round" stroke-linejoin="round"/>
<g id="SVGRepo_iconCarrier"> <g> <g> <polygon points="29.028,48.641 30.332,50.488 36.439,46.76 35.333,44.916 "/> <path d="M53.27,31.853l-12.692,7.306c-0.365,2.981-1.86,4.162-2.722,4.601l1.61,2.816c2.003-1.308,10.237-6.707,14.842-10.141 c4.604-3.432,4.031-7.117,3.893-7.749l-1.323-1.691L56.2,27.257C56.564,29.601,53.412,31.756,53.27,31.853z"/> <path d="M64.21,16.459c-2.776-7.553-9.987-12.6-18.063-12.6c-7.252,0-13.885,4.1-17.154,10.521 c-0.423,0.413-0.792,0.881-1.105,1.401L3.979,55.723C1.412,59.07,0,63.219,0,67.437c0,10.612,8.635,19.245,19.247,19.245h52.047 c10.612,0,19.247-8.633,19.247-19.245c0-3.638-1.053-7.272-2.966-10.25L64.21,16.459z M55.417,26.478l1.442-0.56 c0.207-0.079,0.441-0.016,0.58,0.16l1.621,2.072c0.041,0.051,0.07,0.11,0.088,0.172c0.057,0.194,1.295,4.798-4.237,8.922 c-5.269,3.93-15.244,10.405-15.344,10.47c-0.082,0.055-0.178,0.082-0.274,0.082c-0.04,0-0.08-0.004-0.119-0.015 c-0.135-0.032-0.249-0.12-0.318-0.239l-2.163-3.785c-0.079-0.139-0.088-0.307-0.023-0.454c0.065-0.146,0.195-0.254,0.352-0.289 c0.087-0.021,2.229-0.582,2.581-4.213c0.017-0.163,0.109-0.308,0.25-0.39l12.885-7.415c0.828-0.563,2.939-2.395,2.392-3.873 C55.029,26.865,55.161,26.577,55.417,26.478z M37.393,47.361l-6.938,4.234c-0.082,0.05-0.172,0.074-0.262,0.074 c-0.159,0-0.315-0.076-0.413-0.213l-1.892-2.681c-0.082-0.115-0.111-0.259-0.082-0.397c0.03-0.137,0.116-0.256,0.237-0.328 l7.207-4.258c0.24-0.14,0.547-0.063,0.688,0.176l1.622,2.702C37.705,46.908,37.629,47.217,37.393,47.361z M20.964,46.971 c-0.088-0.112-0.124-0.258-0.099-0.398c0.025-0.141,0.108-0.266,0.23-0.341l32.616-20.272c0.146-0.091,0.331-0.101,0.486-0.025 c0.225,0.109,0.49,0.399,0.503,0.861c0.05,1.978-4.937,5.748-14.82,11.206c-0.298,0.766-1.548,3.614-4.069,4.791 c-2.633,1.229-8.515,5.321-8.573,5.362c-0.029,0.023-1.12,0.835-2.603,0.835C23.25,48.989,22.014,48.311,20.964,46.971z M30.484,76.5c1.026,0,2.072-0.211,2.75-0.541l0.349,1.336c-0.619,0.311-1.859,0.619-3.447,0.619c-3.68,0-6.448-2.324-6.448-6.604 c0-4.086,2.769-6.855,6.816-6.855c1.627,0,2.653,0.348,3.099,0.58l-0.407,1.375c-0.639-0.311-1.549-0.542-2.634-0.542 c-3.06,0-5.093,1.956-5.093,5.384C25.468,74.448,27.308,76.5,30.484,76.5z M41.31,76.5c1.026,0,2.072-0.211,2.75-0.541 l0.349,1.336c-0.62,0.311-1.859,0.619-3.447,0.619c-3.68,0-6.449-2.324-6.449-6.604c0-4.086,2.77-6.855,6.817-6.855 c1.626,0,2.653,0.348,3.099,0.58l-0.407,1.375c-0.639-0.311-1.549-0.542-2.634-0.542c-3.06,0-5.094,1.956-5.094,5.384 C36.293,74.448,38.133,76.5,41.31,76.5z M55.234,66.102h-3.988v11.619h-1.704V66.102h-3.971v-1.434h9.664V66.102z M62.188,77.721 h-1.859l-4.262-13.053h1.82l2.034,6.43c0.562,1.762,1.046,3.352,1.396,4.88h0.037c0.369-1.511,0.91-3.157,1.492-4.861l2.207-6.448 h1.803L62.188,77.721z M67.999,53.911c0,0.28-0.226,0.505-0.505,0.505h-3.739c-0.278,0-0.504-0.226-0.504-0.505V51.51h-4.948 c-0.135,0-0.263-0.053-0.357-0.147l-3.875-3.874c-1-0.184-3.812-2.301-5.448-3.586c-0.12-0.094-0.19-0.237-0.192-0.389 c-0.003-0.152,0.063-0.298,0.18-0.395l5.588-4.657c0.117-0.097,0.271-0.137,0.42-0.107c0.148,0.029,0.277,0.124,0.349,0.257 c0.584,1.094,2.491,4.733,2.491,5.633c0,0.056-0.002,0.112-0.005,0.167l2.083,2.083h3.715v-2.492c0-0.279,0.227-0.504,0.505-0.504 h3.738c0.278,0,0.505,0.225,0.507,0.503L67.999,53.911L67.999,53.911z"/> <path d="M26.644,47.34c0.261-0.183,6.03-4.195,8.74-5.461c2.479-1.157,3.601-4.359,3.611-4.391 c0.04-0.119,0.124-0.218,0.233-0.278c11.375-6.268,13.821-8.996,14.334-9.967L36.485,37.855c0.069,0.042,0.131,0.093,0.176,0.167 c0.144,0.239,0.066,0.549-0.173,0.691l-12.612,7.569c-0.082,0.048-0.172,0.071-0.26,0.071c-0.168,0-0.33-0.084-0.426-0.235 l-1.061,0.659c0.756,0.799,1.598,1.204,2.507,1.204C25.784,47.981,26.636,47.346,26.644,47.34z"/> <path d="M64.256,46.998c0,0.278-0.225,0.504-0.504,0.504h-4.428c-0.135,0-0.262-0.054-0.356-0.147l-2.399-2.399 c-0.11-0.11-0.164-0.265-0.144-0.42c0.013-0.095,0.021-0.193,0.021-0.292c-0.012-0.427-1.041-2.618-2.082-4.608l-4.629,3.857 c1.895,1.458,4.019,2.936,4.479,3.002l0.064-0.006c0.123-0.014,0.269,0.053,0.365,0.148l3.865,3.865h5.244 c0.277,0,0.504,0.225,0.504,0.504v2.401h2.73v-8.902h-2.731L64.256,46.998L64.256,46.998z M53.645,45.406 c-1.002,0-1.817-0.815-1.817-1.818s0.815-1.818,1.817-1.818s1.818,0.814,1.818,1.818C55.463,44.59,54.646,45.406,53.645,45.406z"/> <circle cx="53.645" cy="43.587" r="0.809"/> </g> </g> </g>
</svg>