<svg id="visual" viewBox="0 0 540 960" width="540" height="960" xmlns="http://www.w3.org/2000/svg" xmlns:xlink="http://www.w3.org/1999/xlink" version="1.1"><rect x="0" y="0" width="540" height="960" fill="#ffffff"></rect><path d="M0 267L12.8 267.3C25.7 267.7 51.3 268.3 77 266.3C102.7 264.3 128.3 259.7 154 261C179.7 262.3 205.3 269.7 231.2 274C257 278.3 283 279.7 308.8 299C334.7 318.3 360.3 355.7 386 360.2C411.7 364.7 437.3 336.3 463 316.2C488.7 296 514.3 284 527.2 278L540 272L540 961L527.2 961C514.3 961 488.7 961 463 961C437.3 961 411.7 961 386 961C360.3 961 334.7 961 308.8 961C283 961 257 961 231.2 961C205.3 961 179.7 961 154 961C128.3 961 102.7 961 77 961C51.3 961 25.7 961 12.8 961L0 961Z" fill="#00946a"></path><path d="M0 366L12.8 370.8C25.7 375.7 51.3 385.3 77 397C102.7 408.7 128.3 422.3 154 405.7C179.7 389 205.3 342 231.2 355.3C257 368.7 283 442.3 308.8 447.2C334.7 452 360.3 388 386 388C411.7 388 437.3 452 463 484C488.7 516 514.3 516 527.2 516L540 516L540 961L527.2 961C514.3 961 488.7 961 463 961C437.3 961 411.7 961 386 961C360.3 961 334.7 961 308.8 961C283 961 257 961 231.2 961C205.3 961 179.7 961 154 961C128.3 961 102.7 961 77 961C51.3 961 25.7 961 12.8 961L0 961Z" fill="#008165"></path><path d="M0 392L12.8 419.2C25.7 446.3 51.3 500.7 77 528C102.7 555.3 128.3 555.7 154 541.2C179.7 526.7 205.3 497.3 231.2 495.3C257 493.3 283 518.7 308.8 533.2C334.7 547.7 360.3 551.3 386 537.8C411.7 524.3 437.3 493.7 463 462.5C488.7 431.3 514.3 399.7 527.2 383.8L540 368L540 961L527.2 961C514.3 961 488.7 961 463 961C437.3 961 411.7 961 386 961C360.3 961 334.7 961 308.8 961C283 961 257 961 231.2 961C205.3 961 179.7 961 154 961C128.3 961 102.7 961 77 961C51.3 961 25.7 961 12.8 961L0 961Z" fill="#006f5e"></path><path d="M0 615L12.8 591.5C25.7 568 51.3 521 77 523.7C102.7 526.3 128.3 578.7 154 602.8C179.7 627 205.3 623 231.2 601.8C257 580.7 283 542.3 308.8 529.2C334.7 516 360.3 528 386 521.5C411.7 515 437.3 490 463 481.2C488.7 472.3 514.3 479.7 527.2 483.3L540 487L540 961L527.2 961C514.3 961 488.7 961 463 961C437.3 961 411.7 961 386 961C360.3 961 334.7 961 308.8 961C283 961 257 961 231.2 961C205.3 961 179.7 961 154 961C128.3 961 102.7 961 77 961C51.3 961 25.7 961 12.8 961L0 961Z" fill="#005d54"></path><path d="M0 663L12.8 651.3C25.7 639.7 51.3 616.3 77 609.5C102.7 602.7 128.3 612.3 154 610C179.7 607.7 205.3 593.3 231.2 602.3C257 611.3 283 643.7 308.8 642.8C334.7 642 360.3 608 386 591C411.7 574 437.3 574 463 600.5C488.7 627 514.3 680 527.2 706.5L540 733L540 961L527.2 961C514.3 961 488.7 961 463 961C437.3 961 411.7 961 386 961C360.3 961 334.7 961 308.8 961C283 961 257 961 231.2 961C205.3 961 179.7 961 154 961C128.3 961 102.7 961 77 961C51.3 961 25.7 961 12.8 961L0 961Z" fill="#004b48"></path><path d="M0 687L12.8 703.8C25.7 720.7 51.3 754.3 77 758.7C102.7 763 128.3 738 154 733C179.7 728 205.3 743 231.2 745C257 747 283 736 308.8 739.8C334.7 743.7 360.3 762.3 386 764.2C411.7 766 437.3 751 463 742.8C488.7 734.7 514.3 733.3 527.2 732.7L540 732L540 961L527.2 961C514.3 961 488.7 961 463 961C437.3 961 411.7 961 386 961C360.3 961 334.7 961 308.8 961C283 961 257 961 231.2 961C205.3 961 179.7 961 154 961C128.3 961 102.7 961 77 961C51.3 961 25.7 961 12.8 961L0 961Z" fill="#003a3b"></path><path d="M0 800L12.8 799.2C25.7 798.3 51.3 796.7 77 810.7C102.7 824.7 128.3 854.3 154 852.2C179.7 850 205.3 816 231.2 802.8C257 789.7 283 797.3 308.8 807.2C334.7 817 360.3 829 386 838C411.7 847 437.3 853 463 844.3C488.7 835.7 514.3 812.3 527.2 800.7L540 789L540 961L527.2 961C514.3 961 488.7 961 463 961C437.3 961 411.7 961 386 961C360.3 961 334.7 961 308.8 961C283 961 257 961 231.2 961C205.3 961 179.7 961 154 961C128.3 961 102.7 961 77 961C51.3 961 25.7 961 12.8 961L0 961Z" fill="#012a2d"></path></svg>