<svg id="visual" viewBox="0 0 900 600" width="900" height="600" xmlns="http://www.w3.org/2000/svg" xmlns:xlink="http://www.w3.org/1999/xlink" version="1.1"><path d="M0 55L13.7 58C27.3 61 54.7 67 82 67C109.3 67 136.7 61 163.8 64C191 67 218 79 245.2 77C272.3 75 299.7 59 327 52C354.3 45 381.7 47 409 62C436.3 77 463.7 105 491 109C518.3 113 545.7 93 573 92C600.3 91 627.7 109 654.8 106C682 103 709 79 736.2 72C763.3 65 790.7 75 818 77C845.3 79 872.7 73 886.3 70L900 67L900 0L886.3 0C872.7 0 845.3 0 818 0C790.7 0 763.3 0 736.2 0C709 0 682 0 654.8 0C627.7 0 600.3 0 573 0C545.7 0 518.3 0 491 0C463.7 0 436.3 0 409 0C381.7 0 354.3 0 327 0C299.7 0 272.3 0 245.2 0C218 0 191 0 163.8 0C136.7 0 109.3 0 82 0C54.7 0 27.3 0 13.7 0L0 0Z" fill="#04393d"></path><path d="M0 91L13.7 101C27.3 111 54.7 131 82 141C109.3 151 136.7 151 163.8 154C191 157 218 163 245.2 152C272.3 141 299.7 113 327 107C354.3 101 381.7 117 409 131C436.3 145 463.7 157 491 155C518.3 153 545.7 137 573 139C600.3 141 627.7 161 654.8 166C682 171 709 161 736.2 154C763.3 147 790.7 143 818 136C845.3 129 872.7 119 886.3 114L900 109L900 65L886.3 68C872.7 71 845.3 77 818 75C790.7 73 763.3 63 736.2 70C709 77 682 101 654.8 104C627.7 107 600.3 89 573 90C545.7 91 518.3 111 491 107C463.7 103 436.3 75 409 60C381.7 45 354.3 43 327 50C299.7 57 272.3 73 245.2 75C218 77 191 65 163.8 62C136.7 59 109.3 65 82 65C54.7 65 27.3 59 13.7 56L0 53Z" fill="#033539"></path><path d="M0 325L13.7 324C27.3 323 54.7 321 82 341C109.3 361 136.7 403 163.8 392C191 381 218 317 245.2 291C272.3 265 299.7 277 327 282C354.3 287 381.7 285 409 301C436.3 317 463.7 351 491 363C518.3 375 545.7 365 573 350C600.3 335 627.7 315 654.8 319C682 323 709 351 736.2 342C763.3 333 790.7 287 818 272C845.3 257 872.7 273 886.3 281L900 289L900 107L886.3 112C872.7 117 845.3 127 818 134C790.7 141 763.3 145 736.2 152C709 159 682 169 654.8 164C627.7 159 600.3 139 573 137C545.7 135 518.3 151 491 153C463.7 155 436.3 143 409 129C381.7 115 354.3 99 327 105C299.7 111 272.3 139 245.2 150C218 161 191 155 163.8 152C136.7 149 109.3 149 82 139C54.7 129 27.3 109 13.7 99L0 89Z" fill="#023135"></path><path d="M0 415L13.7 418C27.3 421 54.7 427 82 441C109.3 455 136.7 477 163.8 471C191 465 218 431 245.2 409C272.3 387 299.7 377 327 367C354.3 357 381.7 347 409 375C436.3 403 463.7 469 491 498C518.3 527 545.7 519 573 488C600.3 457 627.7 403 654.8 396C682 389 709 429 736.2 430C763.3 431 790.7 393 818 375C845.3 357 872.7 359 886.3 360L900 361L900 287L886.3 279C872.7 271 845.3 255 818 270C790.7 285 763.3 331 736.2 340C709 349 682 321 654.8 317C627.7 313 600.3 333 573 348C545.7 363 518.3 373 491 361C463.7 349 436.3 315 409 299C381.7 283 354.3 285 327 280C299.7 275 272.3 263 245.2 289C218 315 191 379 163.8 390C136.7 401 109.3 359 82 339C54.7 319 27.3 321 13.7 322L0 323Z" fill="#012d31"></path><path d="M0 601L13.7 601C27.3 601 54.7 601 82 601C109.3 601 136.7 601 163.8 601C191 601 218 601 245.2 601C272.3 601 299.7 601 327 601C354.3 601 381.7 601 409 601C436.3 601 463.7 601 491 601C518.3 601 545.7 601 573 601C600.3 601 627.7 601 654.8 601C682 601 709 601 736.2 601C763.3 601 790.7 601 818 601C845.3 601 872.7 601 886.3 601L900 601L900 359L886.3 358C872.7 357 845.3 355 818 373C790.7 391 763.3 429 736.2 428C709 427 682 387 654.8 394C627.7 401 600.3 455 573 486C545.7 517 518.3 525 491 496C463.7 467 436.3 401 409 373C381.7 345 354.3 355 327 365C299.7 375 272.3 385 245.2 407C218 429 191 463 163.8 469C136.7 475 109.3 453 82 439C54.7 425 27.3 419 13.7 416L0 413Z" fill="#012a2d"></path></svg>