<svg id="visual" viewBox="0 0 900 600" width="900" height="600" xmlns="http://www.w3.org/2000/svg" xmlns:xlink="http://www.w3.org/1999/xlink" version="1.1"><path d="M0 157L13.7 163C27.3 169 54.7 181 82 197C109.3 213 136.7 233 163.8 251C191 269 218 285 245.2 292C272.3 299 299.7 297 327 281C354.3 265 381.7 235 409 216C436.3 197 463.7 189 491 182C518.3 175 545.7 169 573 169C600.3 169 627.7 175 654.8 187C682 199 709 217 736.2 219C763.3 221 790.7 207 818 204C845.3 201 872.7 209 886.3 213L900 217L900 0L886.3 0C872.7 0 845.3 0 818 0C790.7 0 763.3 0 736.2 0C709 0 682 0 654.8 0C627.7 0 600.3 0 573 0C545.7 0 518.3 0 491 0C463.7 0 436.3 0 409 0C381.7 0 354.3 0 327 0C299.7 0 272.3 0 245.2 0C218 0 191 0 163.8 0C136.7 0 109.3 0 82 0C54.7 0 27.3 0 13.7 0L0 0Z" fill="#e78f01"></path><path d="M0 247L13.7 265C27.3 283 54.7 319 82 342C109.3 365 136.7 375 163.8 377C191 379 218 373 245.2 372C272.3 371 299.7 375 327 359C354.3 343 381.7 307 409 295C436.3 283 463.7 295 491 288C518.3 281 545.7 255 573 244C600.3 233 627.7 237 654.8 247C682 257 709 273 736.2 289C763.3 305 790.7 321 818 334C845.3 347 872.7 357 886.3 362L900 367L900 215L886.3 211C872.7 207 845.3 199 818 202C790.7 205 763.3 219 736.2 217C709 215 682 197 654.8 185C627.7 173 600.3 167 573 167C545.7 167 518.3 173 491 180C463.7 187 436.3 195 409 214C381.7 233 354.3 263 327 279C299.7 295 272.3 297 245.2 290C218 283 191 267 163.8 249C136.7 231 109.3 211 82 195C54.7 179 27.3 167 13.7 161L0 155Z" fill="#eb9715"></path><path d="M0 307L13.7 323C27.3 339 54.7 371 82 394C109.3 417 136.7 431 163.8 438C191 445 218 445 245.2 445C272.3 445 299.7 445 327 435C354.3 425 381.7 405 409 399C436.3 393 463.7 401 491 389C518.3 377 545.7 345 573 327C600.3 309 627.7 305 654.8 322C682 339 709 377 736.2 397C763.3 417 790.7 419 818 433C845.3 447 872.7 473 886.3 486L900 499L900 365L886.3 360C872.7 355 845.3 345 818 332C790.7 319 763.3 303 736.2 287C709 271 682 255 654.8 245C627.7 235 600.3 231 573 242C545.7 253 518.3 279 491 286C463.7 293 436.3 281 409 293C381.7 305 354.3 341 327 357C299.7 373 272.3 369 245.2 370C218 371 191 377 163.8 375C136.7 373 109.3 363 82 340C54.7 317 27.3 281 13.7 263L0 245Z" fill="#ef9e22"></path><path d="M0 391L13.7 408C27.3 425 54.7 459 82 480C109.3 501 136.7 509 163.8 507C191 505 218 493 245.2 488C272.3 483 299.7 485 327 481C354.3 477 381.7 467 409 468C436.3 469 463.7 481 491 469C518.3 457 545.7 421 573 404C600.3 387 627.7 389 654.8 406C682 423 709 455 736.2 474C763.3 493 790.7 499 818 507C845.3 515 872.7 525 886.3 530L900 535L900 497L886.3 484C872.7 471 845.3 445 818 431C790.7 417 763.3 415 736.2 395C709 375 682 337 654.8 320C627.7 303 600.3 307 573 325C545.7 343 518.3 375 491 387C463.7 399 436.3 391 409 397C381.7 403 354.3 423 327 433C299.7 443 272.3 443 245.2 443C218 443 191 443 163.8 436C136.7 429 109.3 415 82 392C54.7 369 27.3 337 13.7 321L0 305Z" fill="#f2a62d"></path><path d="M0 601L13.7 601C27.3 601 54.7 601 82 601C109.3 601 136.7 601 163.8 601C191 601 218 601 245.2 601C272.3 601 299.7 601 327 601C354.3 601 381.7 601 409 601C436.3 601 463.7 601 491 601C518.3 601 545.7 601 573 601C600.3 601 627.7 601 654.8 601C682 601 709 601 736.2 601C763.3 601 790.7 601 818 601C845.3 601 872.7 601 886.3 601L900 601L900 533L886.3 528C872.7 523 845.3 513 818 505C790.7 497 763.3 491 736.2 472C709 453 682 421 654.8 404C627.7 387 600.3 385 573 402C545.7 419 518.3 455 491 467C463.7 479 436.3 467 409 466C381.7 465 354.3 475 327 479C299.7 483 272.3 481 245.2 486C218 491 191 503 163.8 505C136.7 507 109.3 499 82 478C54.7 457 27.3 423 13.7 406L0 389Z" fill="#f6ad37"></path></svg>