<svg id="visual" viewBox="0 0 960 540" width="960" height="540" xmlns="http://www.w3.org/2000/svg" xmlns:xlink="http://www.w3.org/1999/xlink" version="1.1"><path d="M0 77L14.5 79.7C29 82.3 58 87.7 87.2 84C116.3 80.3 145.7 67.7 174.8 65.8C204 64 233 73 262 79.3C291 85.7 320 89.3 349 84.8C378 80.3 407 67.7 436.2 67.7C465.3 67.7 494.7 80.3 523.8 76.7C553 73 582 53 611 47.5C640 42 669 51 698 54.7C727 58.3 756 56.7 785.2 61.2C814.3 65.7 843.7 76.3 872.8 82.7C902 89 931 91 945.5 92L960 93L960 0L945.5 0C931 0 902 0 872.8 0C843.7 0 814.3 0 785.2 0C756 0 727 0 698 0C669 0 640 0 611 0C582 0 553 0 523.8 0C494.7 0 465.3 0 436.2 0C407 0 378 0 349 0C320 0 291 0 262 0C233 0 204 0 174.8 0C145.7 0 116.3 0 87.2 0C58 0 29 0 14.5 0L0 0Z" fill="#067a5a"></path><path d="M0 239L14.5 245.2C29 251.3 58 263.7 87.2 259.2C116.3 254.7 145.7 233.3 174.8 237C204 240.7 233 269.3 262 272C291 274.7 320 251.3 349 228.8C378 206.3 407 184.7 436.2 176.5C465.3 168.3 494.7 173.7 523.8 183.5C553 193.3 582 207.7 611 217.7C640 227.7 669 233.3 698 219.8C727 206.3 756 173.7 785.2 167.3C814.3 161 843.7 181 872.8 200.8C902 220.7 931 240.3 945.5 250.2L960 260L960 91L945.5 90C931 89 902 87 872.8 80.7C843.7 74.3 814.3 63.7 785.2 59.2C756 54.7 727 56.3 698 52.7C669 49 640 40 611 45.5C582 51 553 71 523.8 74.7C494.7 78.3 465.3 65.7 436.2 65.7C407 65.7 378 78.3 349 82.8C320 87.3 291 83.7 262 77.3C233 71 204 62 174.8 63.8C145.7 65.7 116.3 78.3 87.2 82C58 85.7 29 80.3 14.5 77.7L0 75Z" fill="#025c43"></path><path d="M0 347L14.5 358.7C29 370.3 58 393.7 87.2 390C116.3 386.3 145.7 355.7 174.8 349.3C204 343 233 361 262 375.3C291 389.7 320 400.3 349 395.8C378 391.3 407 371.7 436.2 367.2C465.3 362.7 494.7 373.3 523.8 369.7C553 366 582 348 611 350.8C640 353.7 669 377.3 698 379.2C727 381 756 361 785.2 350.2C814.3 339.3 843.7 337.7 872.8 340.3C902 343 931 350 945.5 353.5L960 357L960 258L945.5 248.2C931 238.3 902 218.7 872.8 198.8C843.7 179 814.3 159 785.2 165.3C756 171.7 727 204.3 698 217.8C669 231.3 640 225.7 611 215.7C582 205.7 553 191.3 523.8 181.5C494.7 171.7 465.3 166.3 436.2 174.5C407 182.7 378 204.3 349 226.8C320 249.3 291 272.7 262 270C233 267.3 204 238.7 174.8 235C145.7 231.3 116.3 252.7 87.2 257.2C58 261.7 29 249.3 14.5 243.2L0 237Z" fill="#003f2d"></path><path d="M0 406L14.5 415C29 424 58 442 87.2 440.2C116.3 438.3 145.7 416.7 174.8 415.8C204 415 233 435 262 447.7C291 460.3 320 465.7 349 457.5C378 449.3 407 427.7 436.2 429.5C465.3 431.3 494.7 456.7 523.8 456.7C553 456.7 582 431.3 611 434C640 436.7 669 467.3 698 464.7C727 462 756 426 785.2 411.5C814.3 397 843.7 404 872.8 409.3C902 414.7 931 418.3 945.5 420.2L960 422L960 355L945.5 351.5C931 348 902 341 872.8 338.3C843.7 335.7 814.3 337.3 785.2 348.2C756 359 727 379 698 377.2C669 375.3 640 351.7 611 348.8C582 346 553 364 523.8 367.7C494.7 371.3 465.3 360.7 436.2 365.2C407 369.7 378 389.3 349 393.8C320 398.3 291 387.7 262 373.3C233 359 204 341 174.8 347.3C145.7 353.7 116.3 384.3 87.2 388C58 391.7 29 368.3 14.5 356.7L0 345Z" fill="#033728"></path><path d="M0 541L14.5 541C29 541 58 541 87.2 541C116.3 541 145.7 541 174.8 541C204 541 233 541 262 541C291 541 320 541 349 541C378 541 407 541 436.2 541C465.3 541 494.7 541 523.8 541C553 541 582 541 611 541C640 541 669 541 698 541C727 541 756 541 785.2 541C814.3 541 843.7 541 872.8 541C902 541 931 541 945.5 541L960 541L960 420L945.5 418.2C931 416.3 902 412.7 872.8 407.3C843.7 402 814.3 395 785.2 409.5C756 424 727 460 698 462.7C669 465.3 640 434.7 611 432C582 429.3 553 454.7 523.8 454.7C494.7 454.7 465.3 429.3 436.2 427.5C407 425.7 378 447.3 349 455.5C320 463.7 291 458.3 262 445.7C233 433 204 413 174.8 413.8C145.7 414.7 116.3 436.3 87.2 438.2C58 440 29 422 14.5 413L0 404Z" fill="#052f23"></path></svg>